<?xml version="1.0" encoding="UTF-8"?>
<svg version="1.1" viewBox="0 0 114.56 115.1" xml:space="preserve" xmlns="http://www.w3.org/2000/svg" xmlns:xlink="http://www.w3.org/1999/xlink"><defs><filter id="filter0_i_20020_5201" x="2.8212" y="1.268" width="26.537" height="28.714" color-interpolation-filters="sRGB" filterUnits="userSpaceOnUse"><feFlood flood-opacity="0" result="BackgroundImageFix"/><feBlend in="SourceGraphic" in2="BackgroundImageFix" result="shape"/><feColorMatrix in="SourceAlpha" result="hardAlpha" values="0 0 0 0 0 0 0 0 0 0 0 0 0 0 0 0 0 0 127 0"/><feOffset dx="1" dy="-0.75"/><feGaussianBlur stdDeviation="1"/><feComposite in2="hardAlpha" k2="-1" k3="1" operator="arithmetic"/><feColorMatrix values="0 0 0 0 0.901961 0 0 0 0 0.513726 0 0 0 0 0.258824 0 0 0 1 0"/><feBlend in2="shape" result="effect1_innerShadow_20020_5201"/></filter><filter id="filter1_f_20020_5201" x="10.457" y="1.7051" width="4.8689" height="14.359" color-interpolation-filters="sRGB" filterUnits="userSpaceOnUse"><feFlood flood-opacity="0" result="BackgroundImageFix"/><feBlend in="SourceGraphic" in2="BackgroundImageFix" result="shape"/><feGaussianBlur result="effect1_foregroundBlur_20020_5201" stdDeviation="0.75"/></filter><filter id="filter2_f_20020_5201" x="3.1676" y="12.357" width="10.346" height="8.5074" color-interpolation-filters="sRGB" filterUnits="userSpaceOnUse"><feFlood flood-opacity="0" result="BackgroundImageFix"/><feBlend in="SourceGraphic" in2="BackgroundImageFix" result="shape"/><feGaussianBlur result="effect1_foregroundBlur_20020_5201" stdDeviation="0.75"/></filter><filter id="filter3_f_20020_5201" x="15.682" y="7.5587" width="3.9082" height="6.8845" color-interpolation-filters="sRGB" filterUnits="userSpaceOnUse"><feFlood flood-opacity="0" result="BackgroundImageFix"/><feBlend in="SourceGraphic" in2="BackgroundImageFix" result="shape"/><feGaussianBlur result="effect1_foregroundBlur_20020_5201" stdDeviation="0.5"/></filter><filter id="filter4_f_20020_5201" x="20.313" y="8.6798" width="3.9082" height="6.8845" color-interpolation-filters="sRGB" filterUnits="userSpaceOnUse"><feFlood flood-opacity="0" result="BackgroundImageFix"/><feBlend in="SourceGraphic" in2="BackgroundImageFix" result="shape"/><feGaussianBlur result="effect1_foregroundBlur_20020_5201" stdDeviation="0.5"/></filter><filter id="filter5_f_20020_5201" x="24.943" y="9.801" width="3.9082" height="6.8845" color-interpolation-filters="sRGB" filterUnits="userSpaceOnUse"><feFlood flood-opacity="0" result="BackgroundImageFix"/><feBlend in="SourceGraphic" in2="BackgroundImageFix" result="shape"/><feGaussianBlur result="effect1_foregroundBlur_20020_5201" stdDeviation="0.5"/></filter><radialGradient id="paint0_radial_20020_5201" cx="0" cy="0" r="1" gradientTransform="matrix(-11.338,17.105,-25.202,-16.705,25.207,12.877)" gradientUnits="userSpaceOnUse"><stop stop-color="#FFD03F" offset="0"/><stop stop-color="#FEAD3A" offset="1"/></radialGradient><radialGradient id="paint1_radial_20020_5201" cx="0" cy="0" r="1" gradientTransform="matrix(0,5.7555,-1.4713,0,15.86,8.7656)" gradientUnits="userSpaceOnUse"><stop stop-color="#DCA42D" offset="0"/><stop stop-color="#DCA42D" stop-opacity="0" offset="1"/></radialGradient><radialGradient id="paint2_radial_20020_5201" cx="0" cy="0" r="1" gradientTransform="matrix(0,7.1403,-1.533,0,20.404,7.9001)" gradientUnits="userSpaceOnUse"><stop stop-color="#DCA42D" offset="0"/><stop stop-color="#DCA42D" stop-opacity="0" offset="1"/></radialGradient><radialGradient id="paint3_radial_20020_5201" cx="0" cy="0" r="1" gradientTransform="matrix(0,5.9286,-1.2728,0,24.818,9.3281)" gradientUnits="userSpaceOnUse"><stop stop-color="#DCA42D" offset="0"/><stop stop-color="#DCA42D" stop-opacity="0" offset="1"/></radialGradient><radialGradient id="paint4_radial_20020_5201" cx="0" cy="0" r="1" gradientTransform="matrix(0 2.375 -.20313 0 23.848 10.169)" gradientUnits="userSpaceOnUse"><stop stop-color="#B65B01" offset="0"/><stop stop-color="#B65B01" stop-opacity="0" offset="1"/></radialGradient><radialGradient id="paint5_radial_20020_5201" cx="0" cy="0" r="1" gradientTransform="matrix(0 3.8082 -.3257 0 19.452 7.9866)" gradientUnits="userSpaceOnUse"><stop stop-color="#B65B01" offset="0"/><stop stop-color="#B65B01" stop-opacity="0" offset="1"/></radialGradient><linearGradient id="paint6_linear_20020_5201" x1="24.342" x2="28.358" y1="16" y2="16" gradientUnits="userSpaceOnUse"><stop stop-color="#FFE040" stop-opacity="0" offset="0"/><stop stop-color="#FFE040" offset="1"/></linearGradient><linearGradient id="paint7_linear_20020_5201" x1="5.4417" x2="5.4417" y1="-1.3838" y2="1.9916" gradientUnits="userSpaceOnUse"><stop stop-color="#E7942D" offset="0"/><stop stop-color="#E7942D" stop-opacity="0" offset="1"/></linearGradient><linearGradient id="paint8_linear_20020_5201" x1="14.104" x2="12.027" y1="4.0255" y2="4.0255" gradientUnits="userSpaceOnUse"><stop stop-color="#FFBC3D" offset="0"/><stop stop-color="#FFBC3D" stop-opacity="0" offset="1"/></linearGradient><linearGradient id="paint9_linear_20020_5201" x1="5.6224" x2="7.4322" y1="7.6606" y2="3.5928" gradientUnits="userSpaceOnUse"><stop stop-color="#FFE949" offset="0"/><stop stop-color="#FFE949" stop-opacity="0" offset="1"/></linearGradient><linearGradient id="paint10_linear_20020_5201" x1="3.2408" x2="13.642" y1="2.0785" y2="2.0785" gradientUnits="userSpaceOnUse"><stop stop-color="#FFE746" offset="0"/><stop stop-color="#FFE746" stop-opacity="0" offset="1"/></linearGradient><linearGradient id="paint11_linear_20020_5201" x1="1.2333" x2="6.1691" y1=".93505" y2="1.1529" gradientUnits="userSpaceOnUse"><stop stop-color="#FFD12D" offset="0"/><stop stop-color="#FFD12D" stop-opacity="0" offset="1"/></linearGradient><linearGradient id="paint12_linear_20020_5201" x1=".4665" x2="4.8845" y1=".95409" y2=".95409" gradientUnits="userSpaceOnUse"><stop stop-color="#FFE23F" offset="0"/><stop stop-color="#FFE23F" stop-opacity="0" offset="1"/></linearGradient><radialGradient id="paint15_radial_20020_5201" cx="0" cy="0" r="1" gradientTransform="matrix(.82222 -3.4952 .7984 .18782 14.389 11.102)" gradientUnits="userSpaceOnUse"><stop stop-color="#8F4709" offset="0"/><stop stop-color="#8F4709" stop-opacity="0" offset="1"/></radialGradient><linearGradient id="linearGradient567" x1=".4665" x2="4.8845" y1=".95409" y2=".95409" gradientUnits="userSpaceOnUse" xlink:href="#paint12_linear_20020_5201"/><filter id="filter0_ii_18590_750-7" x="2.0658" y=".5625" width="28.875" height="28.875" color-interpolation-filters="sRGB" filterUnits="userSpaceOnUse"><feFlood flood-opacity="0" result="BackgroundImageFix"/><feBlend in="SourceGraphic" in2="BackgroundImageFix" result="shape"/><feColorMatrix in="SourceAlpha" result="hardAlpha" values="0 0 0 0 0 0 0 0 0 0 0 0 0 0 0 0 0 0 127 0"/><feOffset dx="1" dy="-1"/><feGaussianBlur stdDeviation="1.5"/><feComposite in2="hardAlpha" k2="-1" k3="1" operator="arithmetic"/><feColorMatrix values="0 0 0 0 0.188235 0 0 0 0 0.470588 0 0 0 0 0.843137 0 0 0 1 0"/><feBlend in2="shape" result="effect1_innerShadow_18590_750"/><feColorMatrix in="SourceAlpha" result="hardAlpha" values="0 0 0 0 0 0 0 0 0 0 0 0 0 0 0 0 0 0 127 0"/><feOffset dy="-1"/><feGaussianBlur stdDeviation="1.5"/><feComposite in2="hardAlpha" k2="-1" k3="1" operator="arithmetic"/><feColorMatrix values="0 0 0 0 0.27451 0 0 0 0 0.34902 0 0 0 0 0.8 0 0 0 1 0"/><feBlend in2="effect1_innerShadow_18590_750" result="effect2_innerShadow_18590_750"/></filter><filter id="filter1_f_18590_750-7" x="25.503" y="1.3125" width="5.5" height="28.375" color-interpolation-filters="sRGB" filterUnits="userSpaceOnUse"><feFlood flood-opacity="0" result="BackgroundImageFix"/><feBlend in="SourceGraphic" in2="BackgroundImageFix" result="shape"/><feGaussianBlur result="effect1_foregroundBlur_18590_750" stdDeviation="1"/></filter><filter id="filter2_f_18590_750-95" x="2.7797" y=".625" width="27.281" height="5.5" color-interpolation-filters="sRGB" filterUnits="userSpaceOnUse"><feFlood flood-opacity="0" result="BackgroundImageFix"/><feBlend in="SourceGraphic" in2="BackgroundImageFix" result="shape"/><feGaussianBlur result="effect1_foregroundBlur_18590_750" stdDeviation="1"/></filter><filter id="filter3_f_18590_750-1" x="8.6849" y="5.4438" width="14.63" height="20.112" color-interpolation-filters="sRGB" filterUnits="userSpaceOnUse"><feFlood flood-opacity="0" result="BackgroundImageFix"/><feBlend in="SourceGraphic" in2="BackgroundImageFix" result="shape"/><feGaussianBlur result="effect1_foregroundBlur_18590_750" stdDeviation="0.5"/></filter><filter id="filter4_ii_18590_750-1" x="9.2849" y="6.0438" width="13.43" height="18.912" color-interpolation-filters="sRGB" filterUnits="userSpaceOnUse"><feFlood flood-opacity="0" result="BackgroundImageFix"/><feBlend in="SourceGraphic" in2="BackgroundImageFix" result="shape"/><feColorMatrix in="SourceAlpha" result="hardAlpha" values="0 0 0 0 0 0 0 0 0 0 0 0 0 0 0 0 0 0 127 0"/><feOffset dx="-0.4" dy="0.4"/><feGaussianBlur stdDeviation="0.375"/><feComposite in2="hardAlpha" k2="-1" k3="1" operator="arithmetic"/><feColorMatrix values="0 0 0 0 0.901961 0 0 0 0 0.854902 0 0 0 0 0.980392 0 0 0 1 0"/><feBlend in2="shape" result="effect1_innerShadow_18590_750"/><feColorMatrix in="SourceAlpha" result="hardAlpha" values="0 0 0 0 0 0 0 0 0 0 0 0 0 0 0 0 0 0 127 0"/><feOffset dx="0.4" dy="-0.4"/><feGaussianBlur stdDeviation="0.2"/><feComposite in2="hardAlpha" k2="-1" k3="1" operator="arithmetic"/><feColorMatrix values="0 0 0 0 1 0 0 0 0 0.988235 0 0 0 0 1 0 0 0 1 0"/><feBlend in2="effect1_innerShadow_18590_750" result="effect2_innerShadow_18590_750"/></filter><linearGradient id="paint0_linear_18590_750-62" x1="16.003" x2="16.003" y1="5.137" y2="38.39" gradientUnits="userSpaceOnUse"><stop stop-color="#5CB7FF" offset="0"/><stop stop-color="#4878DD" offset="1"/></linearGradient><radialGradient id="paint1_radial_18590_750-3" cx="0" cy="0" r="1" gradientTransform="matrix(-1.5625,1.4688,-1.7155,-1.825,27.722,3.6562)" gradientUnits="userSpaceOnUse"><stop stop-color="#7BD7FF" offset="0"/><stop stop-color="#7BD7FF" stop-opacity="0" offset="1"/></radialGradient><linearGradient id="paint2_linear_18590_750-3" x1="28.753" x2="28.753" y1="4.0625" y2="26.938" gradientUnits="userSpaceOnUse"><stop stop-color="#7FD9FF" offset="0"/><stop stop-color="#639DF4" offset="1"/></linearGradient><linearGradient id="paint3_linear_18590_750-8" x1="28.467" x2="2.9359" y1="3.625" y2="3.625" gradientUnits="userSpaceOnUse"><stop stop-color="#7DD8FF" offset="0"/><stop stop-color="#5DB6FF" offset="1"/></linearGradient><filter id="filter0_ii_18590_694" x="2.0658" y="1.0625" width="28.875" height="28.875" color-interpolation-filters="sRGB" filterUnits="userSpaceOnUse"><feFlood flood-opacity="0" result="BackgroundImageFix"/><feBlend in="SourceGraphic" in2="BackgroundImageFix" result="shape"/><feColorMatrix in="SourceAlpha" result="hardAlpha" values="0 0 0 0 0 0 0 0 0 0 0 0 0 0 0 0 0 0 127 0"/><feOffset dx="1" dy="-1"/><feGaussianBlur stdDeviation="1.5"/><feComposite in2="hardAlpha" k2="-1" k3="1" operator="arithmetic"/><feColorMatrix values="0 0 0 0 0.188235 0 0 0 0 0.470588 0 0 0 0 0.843137 0 0 0 1 0"/><feBlend in2="shape" result="effect1_innerShadow_18590_694"/><feColorMatrix in="SourceAlpha" result="hardAlpha" values="0 0 0 0 0 0 0 0 0 0 0 0 0 0 0 0 0 0 127 0"/><feOffset dy="-1"/><feGaussianBlur stdDeviation="1.5"/><feComposite in2="hardAlpha" k2="-1" k3="1" operator="arithmetic"/><feColorMatrix values="0 0 0 0 0.27451 0 0 0 0 0.34902 0 0 0 0 0.8 0 0 0 1 0"/><feBlend in2="effect1_innerShadow_18590_694" result="effect2_innerShadow_18590_694"/></filter><filter id="filter1_f_18590_694" x="25.503" y="1.8125" width="5.5" height="28.375" color-interpolation-filters="sRGB" filterUnits="userSpaceOnUse"><feFlood flood-opacity="0" result="BackgroundImageFix"/><feBlend in="SourceGraphic" in2="BackgroundImageFix" result="shape"/><feGaussianBlur result="effect1_foregroundBlur_18590_694" stdDeviation="1"/></filter><filter id="filter2_f_18590_694" x="2.7797" y="1.125" width="27.281" height="5.5" color-interpolation-filters="sRGB" filterUnits="userSpaceOnUse"><feFlood flood-opacity="0" result="BackgroundImageFix"/><feBlend in="SourceGraphic" in2="BackgroundImageFix" result="shape"/><feGaussianBlur result="effect1_foregroundBlur_18590_694" stdDeviation="1"/></filter><filter id="filter3_f_18590_694" x="8.6849" y="5.9438" width="14.63" height="20.112" color-interpolation-filters="sRGB" filterUnits="userSpaceOnUse"><feFlood flood-opacity="0" result="BackgroundImageFix"/><feBlend in="SourceGraphic" in2="BackgroundImageFix" result="shape"/><feGaussianBlur result="effect1_foregroundBlur_18590_694" stdDeviation="0.5"/></filter><filter id="filter4_ii_18590_694" x="9.0849" y="6.5438" width="13.63" height="19.112" color-interpolation-filters="sRGB" filterUnits="userSpaceOnUse"><feFlood flood-opacity="0" result="BackgroundImageFix"/><feBlend in="SourceGraphic" in2="BackgroundImageFix" result="shape"/><feColorMatrix in="SourceAlpha" result="hardAlpha" values="0 0 0 0 0 0 0 0 0 0 0 0 0 0 0 0 0 0 127 0"/><feOffset dx="-0.6" dy="0.6"/><feGaussianBlur stdDeviation="0.5"/><feComposite in2="hardAlpha" k2="-1" k3="1" operator="arithmetic"/><feColorMatrix values="0 0 0 0 0.901961 0 0 0 0 0.854902 0 0 0 0 0.980392 0 0 0 1 0"/><feBlend in2="shape" result="effect1_innerShadow_18590_694"/><feColorMatrix in="SourceAlpha" result="hardAlpha" values="0 0 0 0 0 0 0 0 0 0 0 0 0 0 0 0 0 0 127 0"/><feOffset dx="0.4" dy="-0.4"/><feGaussianBlur stdDeviation="0.2"/><feComposite in2="hardAlpha" k2="-1" k3="1" operator="arithmetic"/><feColorMatrix values="0 0 0 0 1 0 0 0 0 0.988235 0 0 0 0 1 0 0 0 1 0"/><feBlend in2="effect1_innerShadow_18590_694" result="effect2_innerShadow_18590_694"/></filter><linearGradient id="paint0_linear_18590_694" x1="16.003" x2="16.003" y1="5.637" y2="38.89" gradientUnits="userSpaceOnUse"><stop stop-color="#5CB7FF" offset="0"/><stop stop-color="#4878DD" offset="1"/></linearGradient><radialGradient id="paint1_radial_18590_694" cx="0" cy="0" r="1" gradientTransform="matrix(-1.5625,1.4688,-1.7155,-1.825,27.722,4.1562)" gradientUnits="userSpaceOnUse"><stop stop-color="#7BD7FF" offset="0"/><stop stop-color="#7BD7FF" stop-opacity="0" offset="1"/></radialGradient><linearGradient id="paint2_linear_18590_694" x1="28.753" x2="28.753" y1="4.5625" y2="27.438" gradientUnits="userSpaceOnUse"><stop stop-color="#7FD9FF" offset="0"/><stop stop-color="#639DF4" offset="1"/></linearGradient><linearGradient id="paint3_linear_18590_694" x1="28.467" x2="2.9359" y1="4.125" y2="4.125" gradientUnits="userSpaceOnUse"><stop stop-color="#7DD8FF" offset="0"/><stop stop-color="#5DB6FF" offset="1"/></linearGradient><filter id="filter0_ii_18590_778" x="2.0658" y="1.3125" width="28.875" height="28.875" color-interpolation-filters="sRGB" filterUnits="userSpaceOnUse"><feFlood flood-opacity="0" result="BackgroundImageFix"/><feBlend in="SourceGraphic" in2="BackgroundImageFix" result="shape"/><feColorMatrix in="SourceAlpha" result="hardAlpha" values="0 0 0 0 0 0 0 0 0 0 0 0 0 0 0 0 0 0 127 0"/><feOffset dx="1" dy="-1"/><feGaussianBlur stdDeviation="1.5"/><feComposite in2="hardAlpha" k2="-1" k3="1" operator="arithmetic"/><feColorMatrix values="0 0 0 0 0.188235 0 0 0 0 0.470588 0 0 0 0 0.843137 0 0 0 1 0"/><feBlend in2="shape" result="effect1_innerShadow_18590_778"/><feColorMatrix in="SourceAlpha" result="hardAlpha" values="0 0 0 0 0 0 0 0 0 0 0 0 0 0 0 0 0 0 127 0"/><feOffset dy="-1"/><feGaussianBlur stdDeviation="1.5"/><feComposite in2="hardAlpha" k2="-1" k3="1" operator="arithmetic"/><feColorMatrix values="0 0 0 0 0.27451 0 0 0 0 0.34902 0 0 0 0 0.8 0 0 0 1 0"/><feBlend in2="effect1_innerShadow_18590_778" result="effect2_innerShadow_18590_778"/></filter><filter id="filter1_f_18590_778" x="25.503" y="2.0625" width="5.5" height="28.375" color-interpolation-filters="sRGB" filterUnits="userSpaceOnUse"><feFlood flood-opacity="0" result="BackgroundImageFix"/><feBlend in="SourceGraphic" in2="BackgroundImageFix" result="shape"/><feGaussianBlur result="effect1_foregroundBlur_18590_778" stdDeviation="1"/></filter><filter id="filter2_f_18590_778" x="2.7797" y="1.375" width="27.281" height="5.5" color-interpolation-filters="sRGB" filterUnits="userSpaceOnUse"><feFlood flood-opacity="0" result="BackgroundImageFix"/><feBlend in="SourceGraphic" in2="BackgroundImageFix" result="shape"/><feGaussianBlur result="effect1_foregroundBlur_18590_778" stdDeviation="1"/></filter><filter id="filter3_f_18590_778" x="5.9436" y="8.9352" width="20.112" height="14.63" color-interpolation-filters="sRGB" filterUnits="userSpaceOnUse"><feFlood flood-opacity="0" result="BackgroundImageFix"/><feBlend in="SourceGraphic" in2="BackgroundImageFix" result="shape"/><feGaussianBlur result="effect1_foregroundBlur_18590_778" stdDeviation="0.5"/></filter><filter id="filter4_ii_18590_778" x="6.3436" y="9.5352" width="19.112" height="13.63" color-interpolation-filters="sRGB" filterUnits="userSpaceOnUse"><feFlood flood-opacity="0" result="BackgroundImageFix"/><feBlend in="SourceGraphic" in2="BackgroundImageFix" result="shape"/><feColorMatrix in="SourceAlpha" result="hardAlpha" values="0 0 0 0 0 0 0 0 0 0 0 0 0 0 0 0 0 0 127 0"/><feOffset dx="-0.6" dy="0.6"/><feGaussianBlur stdDeviation="0.5"/><feComposite in2="hardAlpha" k2="-1" k3="1" operator="arithmetic"/><feColorMatrix values="0 0 0 0 0.866667 0 0 0 0 0.819608 0 0 0 0 0.941176 0 0 0 1 0"/><feBlend in2="shape" result="effect1_innerShadow_18590_778"/><feColorMatrix in="SourceAlpha" result="hardAlpha" values="0 0 0 0 0 0 0 0 0 0 0 0 0 0 0 0 0 0 127 0"/><feOffset dx="0.4" dy="-0.4"/><feGaussianBlur stdDeviation="0.5"/><feComposite in2="hardAlpha" k2="-1" k3="1" operator="arithmetic"/><feColorMatrix values="0 0 0 0 1 0 0 0 0 0.988235 0 0 0 0 1 0 0 0 1 0"/><feBlend in2="effect1_innerShadow_18590_778" result="effect2_innerShadow_18590_778"/></filter><linearGradient id="paint0_linear_18590_778" x1="16.003" x2="16.003" y1="5.887" y2="39.14" gradientUnits="userSpaceOnUse"><stop stop-color="#5CB7FF" offset="0"/><stop stop-color="#4878DD" offset="1"/></linearGradient><radialGradient id="paint1_radial_18590_778" cx="0" cy="0" r="1" gradientTransform="matrix(-1.5625,1.4688,-1.7155,-1.825,27.722,4.4062)" gradientUnits="userSpaceOnUse"><stop stop-color="#7BD7FF" offset="0"/><stop stop-color="#7BD7FF" stop-opacity="0" offset="1"/></radialGradient><linearGradient id="paint2_linear_18590_778" x1="28.753" x2="28.753" y1="4.8125" y2="27.688" gradientUnits="userSpaceOnUse"><stop stop-color="#7FD9FF" offset="0"/><stop stop-color="#639DF4" offset="1"/></linearGradient><linearGradient id="paint3_linear_18590_778" x1="28.467" x2="2.9359" y1="4.375" y2="4.375" gradientUnits="userSpaceOnUse"><stop stop-color="#7DD8FF" offset="0"/><stop stop-color="#5DB6FF" offset="1"/></linearGradient><filter id="filter0_ii_18590_722" x="2.0658" y=".8125" width="28.875" height="28.875" color-interpolation-filters="sRGB" filterUnits="userSpaceOnUse"><feFlood flood-opacity="0" result="BackgroundImageFix"/><feBlend in="SourceGraphic" in2="BackgroundImageFix" result="shape"/><feColorMatrix in="SourceAlpha" result="hardAlpha" values="0 0 0 0 0 0 0 0 0 0 0 0 0 0 0 0 0 0 127 0"/><feOffset dx="1" dy="-1"/><feGaussianBlur stdDeviation="1.5"/><feComposite in2="hardAlpha" k2="-1" k3="1" operator="arithmetic"/><feColorMatrix values="0 0 0 0 0.188235 0 0 0 0 0.470588 0 0 0 0 0.843137 0 0 0 1 0"/><feBlend in2="shape" result="effect1_innerShadow_18590_722"/><feColorMatrix in="SourceAlpha" result="hardAlpha" values="0 0 0 0 0 0 0 0 0 0 0 0 0 0 0 0 0 0 127 0"/><feOffset dy="-1"/><feGaussianBlur stdDeviation="1.5"/><feComposite in2="hardAlpha" k2="-1" k3="1" operator="arithmetic"/><feColorMatrix values="0 0 0 0 0.27451 0 0 0 0 0.34902 0 0 0 0 0.8 0 0 0 1 0"/><feBlend in2="effect1_innerShadow_18590_722" result="effect2_innerShadow_18590_722"/></filter><filter id="filter1_f_18590_722" x="25.503" y="1.5625" width="5.5" height="28.375" color-interpolation-filters="sRGB" filterUnits="userSpaceOnUse"><feFlood flood-opacity="0" result="BackgroundImageFix"/><feBlend in="SourceGraphic" in2="BackgroundImageFix" result="shape"/><feGaussianBlur result="effect1_foregroundBlur_18590_722" stdDeviation="1"/></filter><filter id="filter2_f_18590_722" x="2.7797" y=".875" width="27.281" height="5.5" color-interpolation-filters="sRGB" filterUnits="userSpaceOnUse"><feFlood flood-opacity="0" result="BackgroundImageFix"/><feBlend in="SourceGraphic" in2="BackgroundImageFix" result="shape"/><feGaussianBlur result="effect1_foregroundBlur_18590_722" stdDeviation="1"/></filter><filter id="filter3_f_18590_722" x="6.3641" y="8.4352" width="20.112" height="14.63" color-interpolation-filters="sRGB" filterUnits="userSpaceOnUse"><feFlood flood-opacity="0" result="BackgroundImageFix"/><feBlend in="SourceGraphic" in2="BackgroundImageFix" result="shape"/><feGaussianBlur result="effect1_foregroundBlur_18590_722" stdDeviation="0.5"/></filter><filter id="filter4_ii_18590_722" x="6.7641" y="9.0352" width="19.112" height="13.63" color-interpolation-filters="sRGB" filterUnits="userSpaceOnUse"><feFlood flood-opacity="0" result="BackgroundImageFix"/><feBlend in="SourceGraphic" in2="BackgroundImageFix" result="shape"/><feColorMatrix in="SourceAlpha" result="hardAlpha" values="0 0 0 0 0 0 0 0 0 0 0 0 0 0 0 0 0 0 127 0"/><feOffset dx="-0.6" dy="0.6"/><feGaussianBlur stdDeviation="0.5"/><feComposite in2="hardAlpha" k2="-1" k3="1" operator="arithmetic"/><feColorMatrix values="0 0 0 0 0.901961 0 0 0 0 0.854902 0 0 0 0 0.980392 0 0 0 1 0"/><feBlend in2="shape" result="effect1_innerShadow_18590_722"/><feColorMatrix in="SourceAlpha" result="hardAlpha" values="0 0 0 0 0 0 0 0 0 0 0 0 0 0 0 0 0 0 127 0"/><feOffset dx="0.4" dy="-0.4"/><feGaussianBlur stdDeviation="0.2"/><feComposite in2="hardAlpha" k2="-1" k3="1" operator="arithmetic"/><feColorMatrix values="0 0 0 0 1 0 0 0 0 0.988235 0 0 0 0 1 0 0 0 1 0"/><feBlend in2="effect1_innerShadow_18590_722" result="effect2_innerShadow_18590_722"/></filter><linearGradient id="paint0_linear_18590_722" x1="16.003" x2="16.003" y1="5.387" y2="38.64" gradientUnits="userSpaceOnUse"><stop stop-color="#5CB7FF" offset="0"/><stop stop-color="#4878DD" offset="1"/></linearGradient><radialGradient id="paint1_radial_18590_722" cx="0" cy="0" r="1" gradientTransform="matrix(-1.5625,1.4688,-1.7155,-1.825,27.722,3.9062)" gradientUnits="userSpaceOnUse"><stop stop-color="#7BD7FF" offset="0"/><stop stop-color="#7BD7FF" stop-opacity="0" offset="1"/></radialGradient><linearGradient id="paint2_linear_18590_722" x1="28.753" x2="28.753" y1="4.3125" y2="27.188" gradientUnits="userSpaceOnUse"><stop stop-color="#7FD9FF" offset="0"/><stop stop-color="#639DF4" offset="1"/></linearGradient><linearGradient id="paint3_linear_18590_722" x1="28.467" x2="2.9359" y1="3.875" y2="3.875" gradientUnits="userSpaceOnUse"><stop stop-color="#7DD8FF" offset="0"/><stop stop-color="#5DB6FF" offset="1"/></linearGradient></defs><g transform="translate(-4.318,-3.7353)"><g fill="none"><g transform="translate(32.29,32.98)"><g filter="url(#filter0_ii_18590_750-7)"><rect x="2.0658" y="1.5625" width="27.875" height="27.875" rx="3.6" fill="url(#paint0_linear_18590_750-62)"/><rect x="2.0658" y="1.5625" width="27.875" height="27.875" rx="3.6" fill="url(#paint1_radial_18590_750-3)"/></g><g filter="url(#filter1_f_18590_750-7)"><path d="m28.253 4.0625v22.875" stroke="url(#paint2_linear_18590_750-3)" stroke-linecap="round" stroke-width="1.5"/></g><g filter="url(#filter2_f_18590_750-95)"><path d="m5.5297 3.375h21.781" stroke="url(#paint3_linear_18590_750-8)" stroke-linecap="round" stroke-width="1.5"/></g><g filter="url(#filter3_f_18590_750-1)"><path d="m15 6.4438c-0.5523 0-1 0.44771-1 1v9.75c0 0.1381-0.1119 0.25-0.25 0.25h-3.0628c-0.90016 0-1.342 1.0964-0.69333 1.7206l5.3127 5.1122c0.3872 0.3726 0.9996 0.3726 1.3868 0l5.3128-5.1122c0.6486-0.6242 0.2068-1.7206-0.6934-1.7206h-3.0628c-0.138 0-0.25-0.1119-0.25-0.25v-9.75c0-0.55229-0.4477-1-1-1z" fill="#579fff"/></g><g filter="url(#filter4_ii_18590_750-1)"><path d="m15 6.4438c-0.5523 0-1 0.44771-1 1v9.75c0 0.1381-0.1119 0.25-0.25 0.25h-3.0628c-0.90016 0-1.342 1.0964-0.69333 1.7206l5.3127 5.1122c0.3872 0.3726 0.9996 0.3726 1.3868 0l5.3128-5.1122c0.6486-0.6242 0.2068-1.7206-0.6934-1.7206h-3.0628c-0.138 0-0.25-0.1119-0.25-0.25v-9.75c0-0.55229-0.4477-1-1-1z" fill="#fcf2ff"/></g></g><g transform="translate(32.176,2.6728)"><g filter="url(#filter0_ii_18590_694)"><rect x="2.0658" y="2.0625" width="27.875" height="27.875" rx="3.6" fill="url(#paint0_linear_18590_694)"/><rect x="2.0658" y="2.0625" width="27.875" height="27.875" rx="3.6" fill="url(#paint1_radial_18590_694)"/></g><g filter="url(#filter1_f_18590_694)"><path d="m28.253 4.5625v22.875" stroke="url(#paint2_linear_18590_694)" stroke-linecap="round" stroke-width="1.5"/></g><g filter="url(#filter2_f_18590_694)"><path d="m5.5297 3.875h21.781" stroke="url(#paint3_linear_18590_694)" stroke-linecap="round" stroke-width="1.5"/></g><g filter="url(#filter3_f_18590_694)"><path d="m15.306 7.2233c0.3872-0.37256 0.9996-0.37256 1.3868 0l5.3128 5.1122c0.6486 0.6242 0.2068 1.7206-0.6934 1.7206h-3.0628c-0.138 0-0.25 0.1119-0.25 0.25v9.75c0 0.5523-0.4477 1-1 1h-2c-0.5523 0-1-0.4477-1-1v-9.75c0-0.1381-0.1119-0.25-0.25-0.25h-3.0628c-0.90016 0-1.342-1.0964-0.69333-1.7206z" fill="#579fff"/></g><g filter="url(#filter4_ii_18590_694)"><path d="m15.306 7.2233c0.3872-0.37256 0.9996-0.37256 1.3868 0l5.3128 5.1122c0.6486 0.6242 0.2068 1.7206-0.6934 1.7206h-3.0628c-0.138 0-0.25 0.1119-0.25 0.25v9.75c0 0.5523-0.4477 1-1 1h-2c-0.5523 0-1-0.4477-1-1v-9.75c0-0.1381-0.1119-0.25-0.25-0.25h-3.0628c-0.90016 0-1.342-1.0964-0.69333-1.7206z" fill="#fcf2ff"/></g></g><g transform="translate(2.2522,32.23)"><g filter="url(#filter0_ii_18590_778)"><rect x="2.0658" y="2.3125" width="27.875" height="27.875" rx="3.6" fill="url(#paint0_linear_18590_778)"/><rect x="2.0658" y="2.3125" width="27.875" height="27.875" rx="3.6" fill="url(#paint1_radial_18590_778)"/></g><g filter="url(#filter1_f_18590_778)"><path d="m28.253 4.8125v22.875" stroke="url(#paint2_linear_18590_778)" stroke-linecap="round" stroke-width="1.5"/></g><g filter="url(#filter2_f_18590_778)"><path d="m5.5297 4.125h21.781" stroke="url(#paint3_linear_18590_778)" stroke-linecap="round" stroke-width="1.5"/></g><g filter="url(#filter3_f_18590_778)"><path d="m7.223 15.557c-0.37257 0.3872-0.37257 0.9996 0 1.3867l5.1122 5.3128c0.6242 0.6487 1.7206 0.2069 1.7206-0.6934v-3.0627c0-0.1381 0.112-0.25 0.25-0.25h9.75c0.5523 0 1-0.4477 1-1v-2c0-0.5523-0.4477-1-1-1h-9.75c-0.138 0-0.25-0.112-0.25-0.25v-3.0628c0-0.9002-1.0964-1.342-1.7206-0.6934z" fill="#579fff"/></g><g filter="url(#filter4_ii_18590_778)"><path d="m7.223 15.557c-0.37257 0.3872-0.37257 0.9996 0 1.3867l5.1122 5.3128c0.6242 0.6487 1.7206 0.2069 1.7206-0.6934v-3.0627c0-0.1381 0.112-0.25 0.25-0.25h9.75c0.5523 0 1-0.4477 1-1v-2c0-0.5523-0.4477-1-1-1h-9.75c-0.138 0-0.25-0.112-0.25-0.25v-3.0628c0-0.9002-1.0964-1.342-1.7206-0.6934z" fill="#fcf2ff"/></g></g><g transform="translate(62.328,32.73)"><g filter="url(#filter0_ii_18590_722)"><rect x="2.0658" y="1.8125" width="27.875" height="27.875" rx="3.6" fill="url(#paint0_linear_18590_722)"/><rect x="2.0658" y="1.8125" width="27.875" height="27.875" rx="3.6" fill="url(#paint1_radial_18590_722)"/></g><g filter="url(#filter1_f_18590_722)"><path d="m28.253 4.3125v22.875" stroke="url(#paint2_linear_18590_722)" stroke-linecap="round" stroke-width="1.5"/></g><g filter="url(#filter2_f_18590_722)"><path d="m5.5297 3.625h21.781" stroke="url(#paint3_linear_18590_722)" stroke-linecap="round" stroke-width="1.5"/></g><g filter="url(#filter3_f_18590_722)"><path d="m25.197 16.443c0.3726-0.3871 0.3726-0.9995 0-1.3867l-5.1122-5.3128c-0.6242-0.64867-1.7206-0.20684-1.7206 0.69338v3.0628c0 0.138-0.1119 0.25-0.25 0.25h-9.75c-0.55229 0-1 0.4477-1 1v2c0 0.5523 0.44771 1 1 1h9.75c0.1381 0 0.25 0.1119 0.25 0.25v3.0627c0 0.9003 1.0964 1.3421 1.7206 0.6934z" fill="#579fff"/></g><g filter="url(#filter4_ii_18590_722)"><path d="m25.197 16.443c0.3726-0.3871 0.3726-0.9995 0-1.3867l-5.1122-5.3128c-0.6242-0.64867-1.7206-0.20684-1.7206 0.69338v3.0628c0 0.138-0.1119 0.25-0.25 0.25h-9.75c-0.55229 0-1 0.4477-1 1v2c0 0.5523 0.44771 1 1 1h9.75c0.1381 0 0.25 0.1119 0.25 0.25v3.0627c0 0.9003 1.0964 1.3421 1.7206 0.6934z" fill="#fcf2ff"/></g></g><g transform="matrix(2.2999,0,0,2.2999,51.362,49.875)"><g filter="url(#filter0_i_20020_5201)"><path d="m4.1164 18.119c-1.2396-0.8598-1.7017-2.5957-0.88852-3.8479s2.4505-1.5948 3.7027-0.7816l2.6103 1.6951v-10.53c0-1.4564 1.1806-2.637 2.6369-2.637 1.4564 0 2.637 1.1806 2.637 2.637v4.2841c0.4178-0.79198 1.2494-1.3318 2.207-1.3318 1.0907 0 2.0178 0.70018 2.3564 1.6756 0.4951-0.51181 1.189-0.83001 1.9573-0.83001 1.1474 0 2.1289 0.70958 2.5299 1.7138 0.4759-0.40733 1.094-0.65333 1.7695-0.65333 1.5039 0 2.723 1.2191 2.723 2.7229v3.1028c0 0.0347-7e-4 0.0692-0.0019 0.1036v4.8591c0 1.4313-0.8483 3.8779-2.5099 6.0227-0.1657 0.2202-0.3413 0.4328-0.5262 0.637-0.0036 4e-3 -0.0072 0.0081-0.0108 0.0122 0 1e-4 -1e-4 -1e-4 0 0-1.6782 1.8464-4.1176 3.0084-6.8326 3.0084-3.149 0-5.9271-1.5633-7.5769-3.9445-0.6033-0.8329-0.8918-1.5065-1.1784-2.1757-0.21965-0.5129-0.43821-1.0232-0.79656-1.6008-0.56647-0.913-1.3994-1.5905-1.8649-1.969-0.03501-0.0285-0.06794-0.0553-0.09852-0.0803l0.00226-5e-4z" fill="url(#paint0_radial_20020_5201)"/><path d="m4.1164 18.119c-1.2396-0.8598-1.7017-2.5957-0.88852-3.8479s2.4505-1.5948 3.7027-0.7816l2.6103 1.6951v-10.53c0-1.4564 1.1806-2.637 2.6369-2.637 1.4564 0 2.637 1.1806 2.637 2.637v4.2841c0.4178-0.79198 1.2494-1.3318 2.207-1.3318 1.0907 0 2.0178 0.70018 2.3564 1.6756 0.4951-0.51181 1.189-0.83001 1.9573-0.83001 1.1474 0 2.1289 0.70958 2.5299 1.7138 0.4759-0.40733 1.094-0.65333 1.7695-0.65333 1.5039 0 2.723 1.2191 2.723 2.7229v3.1028c0 0.0347-7e-4 0.0692-0.0019 0.1036v4.8591c0 1.4313-0.8483 3.8779-2.5099 6.0227-0.1657 0.2202-0.3413 0.4328-0.5262 0.637-0.0036 4e-3 -0.0072 0.0081-0.0108 0.0122 0 1e-4 -1e-4 -1e-4 0 0-1.6782 1.8464-4.1176 3.0084-6.8326 3.0084-3.149 0-5.9271-1.5633-7.5769-3.9445-0.6033-0.8329-0.8918-1.5065-1.1784-2.1757-0.21965-0.5129-0.43821-1.0232-0.79656-1.6008-0.56647-0.913-1.3994-1.5905-1.8649-1.969-0.03501-0.0285-0.06794-0.0553-0.09852-0.0803l0.00226-5e-4z" fill="url(#paint1_radial_20020_5201)"/><path d="m4.1164 18.119c-1.2396-0.8598-1.7017-2.5957-0.88852-3.8479s2.4505-1.5948 3.7027-0.7816l2.6103 1.6951v-10.53c0-1.4564 1.1806-2.637 2.6369-2.637 1.4564 0 2.637 1.1806 2.637 2.637v4.2841c0.4178-0.79198 1.2494-1.3318 2.207-1.3318 1.0907 0 2.0178 0.70018 2.3564 1.6756 0.4951-0.51181 1.189-0.83001 1.9573-0.83001 1.1474 0 2.1289 0.70958 2.5299 1.7138 0.4759-0.40733 1.094-0.65333 1.7695-0.65333 1.5039 0 2.723 1.2191 2.723 2.7229v3.1028c0 0.0347-7e-4 0.0692-0.0019 0.1036v4.8591c0 1.4313-0.8483 3.8779-2.5099 6.0227-0.1657 0.2202-0.3413 0.4328-0.5262 0.637-0.0036 4e-3 -0.0072 0.0081-0.0108 0.0122 0 1e-4 -1e-4 -1e-4 0 0-1.6782 1.8464-4.1176 3.0084-6.8326 3.0084-3.149 0-5.9271-1.5633-7.5769-3.9445-0.6033-0.8329-0.8918-1.5065-1.1784-2.1757-0.21965-0.5129-0.43821-1.0232-0.79656-1.6008-0.56647-0.913-1.3994-1.5905-1.8649-1.969-0.03501-0.0285-0.06794-0.0553-0.09852-0.0803l0.00226-5e-4z" fill="url(#paint2_radial_20020_5201)"/><path d="m4.1164 18.119c-1.2396-0.8598-1.7017-2.5957-0.88852-3.8479s2.4505-1.5948 3.7027-0.7816l2.6103 1.6951v-10.53c0-1.4564 1.1806-2.637 2.6369-2.637 1.4564 0 2.637 1.1806 2.637 2.637v4.2841c0.4178-0.79198 1.2494-1.3318 2.207-1.3318 1.0907 0 2.0178 0.70018 2.3564 1.6756 0.4951-0.51181 1.189-0.83001 1.9573-0.83001 1.1474 0 2.1289 0.70958 2.5299 1.7138 0.4759-0.40733 1.094-0.65333 1.7695-0.65333 1.5039 0 2.723 1.2191 2.723 2.7229v3.1028c0 0.0347-7e-4 0.0692-0.0019 0.1036v4.8591c0 1.4313-0.8483 3.8779-2.5099 6.0227-0.1657 0.2202-0.3413 0.4328-0.5262 0.637-0.0036 4e-3 -0.0072 0.0081-0.0108 0.0122 0 1e-4 -1e-4 -1e-4 0 0-1.6782 1.8464-4.1176 3.0084-6.8326 3.0084-3.149 0-5.9271-1.5633-7.5769-3.9445-0.6033-0.8329-0.8918-1.5065-1.1784-2.1757-0.21965-0.5129-0.43821-1.0232-0.79656-1.6008-0.56647-0.913-1.3994-1.5905-1.8649-1.969-0.03501-0.0285-0.06794-0.0553-0.09852-0.0803l0.00226-5e-4z" fill="url(#paint3_radial_20020_5201)"/><path d="m4.1164 18.119c-1.2396-0.8598-1.7017-2.5957-0.88852-3.8479s2.4505-1.5948 3.7027-0.7816l2.6103 1.6951v-10.53c0-1.4564 1.1806-2.637 2.6369-2.637 1.4564 0 2.637 1.1806 2.637 2.637v4.2841c0.4178-0.79198 1.2494-1.3318 2.207-1.3318 1.0907 0 2.0178 0.70018 2.3564 1.6756 0.4951-0.51181 1.189-0.83001 1.9573-0.83001 1.1474 0 2.1289 0.70958 2.5299 1.7138 0.4759-0.40733 1.094-0.65333 1.7695-0.65333 1.5039 0 2.723 1.2191 2.723 2.7229v3.1028c0 0.0347-7e-4 0.0692-0.0019 0.1036v4.8591c0 1.4313-0.8483 3.8779-2.5099 6.0227-0.1657 0.2202-0.3413 0.4328-0.5262 0.637-0.0036 4e-3 -0.0072 0.0081-0.0108 0.0122 0 1e-4 -1e-4 -1e-4 0 0-1.6782 1.8464-4.1176 3.0084-6.8326 3.0084-3.149 0-5.9271-1.5633-7.5769-3.9445-0.6033-0.8329-0.8918-1.5065-1.1784-2.1757-0.21965-0.5129-0.43821-1.0232-0.79656-1.6008-0.56647-0.913-1.3994-1.5905-1.8649-1.969-0.03501-0.0285-0.06794-0.0553-0.09852-0.0803l0.00226-5e-4z" fill="url(#paint4_radial_20020_5201)"/><path d="m4.1164 18.119c-1.2396-0.8598-1.7017-2.5957-0.88852-3.8479s2.4505-1.5948 3.7027-0.7816l2.6103 1.6951v-10.53c0-1.4564 1.1806-2.637 2.6369-2.637 1.4564 0 2.637 1.1806 2.637 2.637v4.2841c0.4178-0.79198 1.2494-1.3318 2.207-1.3318 1.0907 0 2.0178 0.70018 2.3564 1.6756 0.4951-0.51181 1.189-0.83001 1.9573-0.83001 1.1474 0 2.1289 0.70958 2.5299 1.7138 0.4759-0.40733 1.094-0.65333 1.7695-0.65333 1.5039 0 2.723 1.2191 2.723 2.7229v3.1028c0 0.0347-7e-4 0.0692-0.0019 0.1036v4.8591c0 1.4313-0.8483 3.8779-2.5099 6.0227-0.1657 0.2202-0.3413 0.4328-0.5262 0.637-0.0036 4e-3 -0.0072 0.0081-0.0108 0.0122 0 1e-4 -1e-4 -1e-4 0 0-1.6782 1.8464-4.1176 3.0084-6.8326 3.0084-3.149 0-5.9271-1.5633-7.5769-3.9445-0.6033-0.8329-0.8918-1.5065-1.1784-2.1757-0.21965-0.5129-0.43821-1.0232-0.79656-1.6008-0.56647-0.913-1.3994-1.5905-1.8649-1.969-0.03501-0.0285-0.06794-0.0553-0.09852-0.0803l0.00226-5e-4z" fill="url(#paint5_radial_20020_5201)"/><path d="m4.1164 18.119c-1.2396-0.8598-1.7017-2.5957-0.88852-3.8479s2.4505-1.5948 3.7027-0.7816l2.6103 1.6951v-10.53c0-1.4564 1.1806-2.637 2.6369-2.637 1.4564 0 2.637 1.1806 2.637 2.637v4.2841c0.4178-0.79198 1.2494-1.3318 2.207-1.3318 1.0907 0 2.0178 0.70018 2.3564 1.6756 0.4951-0.51181 1.189-0.83001 1.9573-0.83001 1.1474 0 2.1289 0.70958 2.5299 1.7138 0.4759-0.40733 1.094-0.65333 1.7695-0.65333 1.5039 0 2.723 1.2191 2.723 2.7229v3.1028c0 0.0347-7e-4 0.0692-0.0019 0.1036v4.8591c0 1.4313-0.8483 3.8779-2.5099 6.0227-0.1657 0.2202-0.3413 0.4328-0.5262 0.637-0.0036 4e-3 -0.0072 0.0081-0.0108 0.0122 0 1e-4 -1e-4 -1e-4 0 0-1.6782 1.8464-4.1176 3.0084-6.8326 3.0084-3.149 0-5.9271-1.5633-7.5769-3.9445-0.6033-0.8329-0.8918-1.5065-1.1784-2.1757-0.21965-0.5129-0.43821-1.0232-0.79656-1.6008-0.56647-0.913-1.3994-1.5905-1.8649-1.969-0.03501-0.0285-0.06794-0.0553-0.09852-0.0803l0.00226-5e-4z" fill="url(#paint6_linear_20020_5201)"/></g><rect transform="matrix(4.3711e-8,1,1,-4.3711e-8,9.5409,2.018)" width="14.864" height="5.2739" rx="2.637" fill="url(#paint7_linear_20020_5201)"/><rect transform="matrix(4.3711e-8,1,1,-4.3711e-8,9.5409,2.018)" width="14.864" height="5.2739" rx="2.637" fill="url(#paint8_linear_20020_5201)"/><rect transform="matrix(4.3711e-8,1,1,-4.3711e-8,9.5409,2.018)" width="14.864" height="5.2739" rx="2.637" fill="url(#paint9_linear_20020_5201)"/><g filter="url(#filter1_f_20020_5201)"><rect transform="matrix(4.3711e-8,1,1,-4.3711e-8,11.957,3.2051)" width="11.359" height="1.8689" rx=".93446" fill="url(#paint10_linear_20020_5201)"/></g><g filter="url(#filter2_f_20020_5201)"><rect transform="matrix(.84037 .54201 .54201 -.84037 4.2535 15.264)" width="8.3297" height="2.1667" rx="1.0834" fill="url(#paint11_linear_20020_5201)"/></g><g filter="url(#filter3_f_20020_5201)"><rect transform="matrix(4.3711e-8,1,1,-4.3711e-8,16.682,8.5587)" width="4.8845" height="1.9082" rx=".95409" fill="url(#linearGradient567)"/></g><g filter="url(#filter4_f_20020_5201)"><rect transform="matrix(4.3711e-8,1,1,-4.3711e-8,21.313,9.6798)" width="4.8845" height="1.9082" rx=".95409" fill="url(#linearGradient567)"/></g><g filter="url(#filter5_f_20020_5201)"><rect transform="matrix(4.3711e-8,1,1,-4.3711e-8,25.943,10.801)" width="4.8845" height="1.9082" rx=".95409" fill="url(#linearGradient567)"/></g><path d="m17.185 7.6125v6.4223h-2.3704v-5.0957c0.4178-0.79197 1.2494-1.3318 2.207-1.3318 0.0549 0 0.1094 0.0018 0.1634 0.00528z" fill="url(#paint15_radial_20020_5201)"/></g></g></g></svg>
