<?xml version="1.0" encoding="UTF-8"?>
<svg version="1.1" viewBox="0 0 500 500" xmlns="http://www.w3.org/2000/svg">
 <g transform="matrix(25.648 0 0 25.648 -57.776 -64.255)">
  <path d="m11 3v5c-2-1-5-1-7 2s3 12 5 12 2-1 3-1 1 1 3 1 7-9 5-12-5-3-7-2v-5zm0 2c-0.0013-0.00143-0.0026-0.00248-0.0039-0.00391v0.00586c0.001317-7.194e-4 0.002576-0.0012267 0.0039-0.00195z" fill="#f44336"/>
  <path d="m6.7023 2.5056c-1.6473 0.021483-2.5859 1.2871-2.5859 1.2871s1.2701 4.2885 6.8867 1.2227v-0.00586c-1.7168-1.9506-3.1745-2.5186-4.3008-2.5039z" fill="#8bc34a"/>
 </g>
</svg>
