<?xml version="1.0" encoding="UTF-8"?>
<svg class="iconify iconify--noto" aria-hidden="true" preserveAspectRatio="xMidYMid" role="img" version="1.1" viewBox="0 0 119.59 99.05" xmlns="http://www.w3.org/2000/svg">
 <defs>
  <clipPath id="clipPath30076">
   <rect x="3.2475" y="3.0528" width="78.074" height="64.667" fill="#ff7043"/>
  </clipPath>
 </defs>
 <g transform="matrix(1.5317 0 0 1.5317 -4.9741 -4.676)" clip-path="url(#clipPath30076)">
  <path d="m48.65 76.52s8.99-6.82 22.43-6.57c19.9 0.38 24.12 9.85 24.12 9.85l3.19 15.02s6.01 1.78 7.88 1.97c1.88 0.19 5.54 1.17 9.95-1.92 4.41-3.1 3.28-6.52 5.44-6.43 2.82 0.12 0.84 9.57-1.6 12.58-2.44 3-13.33 8.73-17.93 9.95s-6.01 3.14-10.79 3.24c-4.79 0.09-16.8-3.14-16.8-3.14l-25.9-12.2v-22.35z" fill="#1e88e5"/>
  <path d="m58.13 96.23s3.94-7.04 10.98-6.48 9.57 5.54 9.57 5.54l-15.58 5.07z" fill="#1976d2"/>
  <path d="m94.26 105.34c4.97 1.6 6.85 1.41 6.85 1.41s2.91-3.1 4.13-5.73 1.36-4.13 1.36-4.13-1.92-0.47-3.71-1.03c-1.78-0.56-5.35-2.63-5.35-2.63l-4.13 11.36z" fill="#1976d2"/>
  <path d="m50.62 5.71c14.64 0.7 27.28 13.75 22.95 30.83-3.24 12.76-14.51 29.64-17.32 33.97-5.16 7.98-10.7 23.46 4.83 25.11 22.21 2.35 5.81-9.83 16.67-17.34 5.7-3.94 12.19-2.7 16.37 0.3 5.45 3.92 20.62 46.06-34.91 43.13-11.54-0.61-20.71-6.97-25.76-11.83-14.95-14.36-3.48-38.3-2.53-40.4 1.26-2.81 13.08-18.16 12.24-23.08-0.84-4.93-4.93-3.66-10.56-5.63s-11.88-8.2-10.14-16.75c1.62-7.96 7.76-19.29 28.16-18.31z" fill="#42a5f5"/>
  <path d="m92.15 114.46s2.72-2.46 3.66-3.21 5.3-4.5 5.3-4.5 6.93-0.25 11.73-2.25c5.96-2.49 9.43-8.73 9.9-10.93 0.25-1.19-0.61 10.7-9.15 16.47-8.25 5.57-21.44 4.42-21.44 4.42z" fill="#bbdefb"/>
  <path d="m22.53 86.87c-0.33 12.53 9.91 25.73 18.79 29.28 4.93 1.97-15.77-7.67-14.08-28.23 1.34-16.35 17.81-30.27 18.16-39.56 0.21-5.63-6.76-6.12-6.76-6.12s2.16 1.62 2.25 3.73c0.14 3.38-8.59 15.77-10.42 18.3-1.81 2.54-7.65 11.9-7.94 22.6z" fill="#bbdefb"/>
  <path d="m24.535 34.194 4.32 4.69c0.21-0.29-4.72 4.71-9.29 8.07-3.06 2.25-12.48 7.07-12.98 6.59-0.63-0.61 2.28-2.53 3.87-3.94 1.21-1.07 4.22-3.78 4.22-3.78s-3.71 0.4-5.49 0.4c-1.78 0-6.33 0.14-5.91-0.7 0.33-0.66 6.88-1.7 9.34-2.7 7.41-3 11.92-8.63 11.92-8.63z" fill="#ff7043"/>
  <path d="m66.67 43.49c-1.83 4.25 1.83 6.22 1.83 6.22s1.43-3.05 2.04-4.43c0.75-1.71 1.48-3.84 1.48-3.84s-3.89-1.35-5.35 2.05z" fill="#42a5f5"/>
  <path d="m64.84 56.46s-2.53-0.28-4.79-1.06c-2.05-0.71-5.5-3.6-7.6 0.14-1.94 3.45 1.31 5.35 3.87 6.41 2.39 0.99 4.54 1.34 4.54 1.34s1.64-2.75 2.11-3.52 1.87-3.31 1.87-3.31z" fill="#42a5f5"/>
  <g fill="#bbdefb">
   <path d="m56.25 70.52s-3.38-0.19-5.56-0.75c-1.91-0.49-5.4-2.82-7.32 0.21-1.71 2.7 0.77 4.84 4.08 5.7 3.66 0.95 5.77 0.67 5.77 0.67s0.88-1.79 1.23-2.78c0.37-1.01 1.8-3.05 1.8-3.05z"/>
   <path d="m51.02 83.37s-4.08 0.56-6.05 0.56c-2.04 0-7.2-0.48-7.09 4.27 0.09 4.08 5.62 3.74 7.04 3.71 2.02-0.05 7.29-1 7.29-1s-0.9-1.6-1.16-3.84c-0.2-1.64-0.03-3.7-0.03-3.7z"/>
   <path d="m55.12 93.84s-0.66 2.97-1.62 5.14c-1.06 2.39-3.52 6.48 1.48 8.38 4.62 1.76 6.48-1.55 7.32-5.28 0.78-3.47 0.84-6.3 0.84-6.3s-2.44-0.11-4.46-0.57c-1.62-0.39-3.56-1.37-3.56-1.37z"/>
   <path d="m70.82 95.27s3.31 2.89 4.36 4.36c1.06 1.48 3.47 5.94 7.32 4.01 3.38-1.69 0.65-6.85-0.99-8.73-1.37-1.57-3.45-3.28-5.42-4.41-1.32-0.75-2.44-0.94-2.44-0.94s0.23 2.06-0.38 3.52c-0.64 1.57-2.45 2.19-2.45 2.19z"/>
   <path d="m75.19 85.53c0.34 1.16 1.35 1.21 3.59 0.28 2.39-0.99 5.63-1.48 8.31-1.48 3.17 0 6.26 2.11 7.39 3.03s2.49 1.24 2.7-0.52-1.06-3.73-3.52-5.49c-1.5-1.07-4.18-2.72-7.34-2.79-3.37-0.07-6.48 1.13-8.45 2.39-1.22 0.79-3.25 2.68-2.68 4.58z"/>
   <circle cx="35.577" cy="12.38" r="8.5682" stroke="#42a5f5" stroke-width="1.519"/>
   <circle cx="46.422" cy="22.919" r="8.5682" stroke="#42a5f5" stroke-width="1.519"/>
  </g>
  <circle cx="32.418" cy="14.216" r="3.6835" fill="#263238"/>
  <circle cx="43.853" cy="25.477" r="3.6835" fill="#263238"/>
 </g>
</svg>
