<?xml version="1.0" encoding="UTF-8"?>
<svg class="iconify iconify--noto" aria-hidden="true" preserveAspectRatio="xMidYMid" role="img" version="1.1" viewBox="0 0 119.59 99.05" xmlns="http://www.w3.org/2000/svg">
 <defs>
  <clipPath id="clipPath30076">
   <rect x="3.2475" y="3.0528" width="78.074" height="64.667" fill="#ff7043"/>
  </clipPath>
 </defs>
 <g transform="matrix(1.5317 0 0 1.5317 -4.9741 -4.676)" clip-path="url(#clipPath30076)">
  <g transform="translate(4.1557 -4.4891)">
   <g stroke-width=".93141">
    <path d="m45.536 79.629s8.3734-6.3522 20.892-6.1194c18.535 0.35394 22.466 9.1744 22.466 9.1744l2.9712 13.99s5.5978 1.6579 7.3395 1.8349c1.7511 0.17697 5.16 1.0898 9.2676-1.7883 4.1075-2.8874 3.055-6.0728 5.0669-5.989 2.6266 0.11177 0.78239 8.9136-1.4903 11.717-2.2726 2.7942-12.416 8.1312-16.7 9.2676-4.2845 1.1363-5.5978 2.9246-10.05 3.0178-4.4615 0.0838-15.648-2.9246-15.648-2.9246l-24.124-11.363v-20.817z" fill="#1e88e5"/>
    <path d="m54.366 97.988s3.6698-6.5571 10.227-6.0356c6.5571 0.52159 8.9136 5.16 8.9136 5.16l-14.511 4.7223z" fill="#1976d2"/>
    <path d="m88.018 106.47c4.6291 1.4903 6.3802 1.3133 6.3802 1.3133s2.7104-2.8874 3.8467-5.337c1.1363-2.4496 1.2667-3.8467 1.2667-3.8467s-1.7883-0.43776-3.4555-0.95936c-1.6579-0.52159-4.9831-2.4496-4.9831-2.4496l-3.8467 10.581z" fill="#1976d2"/>
    <path d="m47.371 13.676c13.636 0.65199 25.409 12.807 21.376 28.715-3.0178 11.885-13.515 27.607-16.132 31.64-4.8061 7.4327-9.9661 21.851 4.4987 23.388 20.687 2.1888 5.4115-9.1558 15.527-16.151 5.3091-3.6698 11.354-2.5148 15.247 0.27942 5.0762 3.6511 19.206 42.901-32.516 40.172-10.749-0.56816-19.29-6.4919-23.993-11.019-13.925-13.375-3.2413-35.673-2.3565-37.629 1.1736-2.6173 12.183-16.914 11.4-21.497-0.78239-4.5919-4.5919-3.409-9.8357-5.2439-5.2439-1.8349-11.065-7.6376-9.4445-15.601 1.5089-7.414 7.2278-17.967 26.229-17.054z" fill="#42a5f5"/>
    <path d="m86.052 114.97s2.5334-2.2913 3.409-2.9898 4.9365-4.1914 4.9365-4.1914 6.4547-0.23285 10.925-2.0957c5.5512-2.3192 8.7832-8.1312 9.221-10.18 0.23285-1.1084-0.56816 9.9661-8.5224 15.34-7.6842 5.188-19.969 4.1168-19.969 4.1168z" fill="#bbdefb"/>
    <path d="m21.207 89.27c-0.30737 11.671 9.2303 23.965 17.501 27.272 4.5919 1.8349-14.688-7.1439-13.114-26.294 1.2481-15.229 16.588-28.194 16.914-36.847 0.1956-5.2439-6.2964-5.7002-6.2964-5.7002s2.0119 1.5089 2.0957 3.4742c0.1304 3.1482-8.0008 14.688-9.7053 17.045-1.6859 2.3658-7.1253 11.084-7.3954 21.05z" fill="#bbdefb"/>
    <path d="m23.075 40.206 4.0237 4.3683c0.1956-0.27011-4.3963 4.387-8.6528 7.5165-2.8501 2.0957-11.624 6.5851-12.09 6.138-0.58679-0.56816 2.1236-2.3565 3.6046-3.6698 1.127-0.99661 3.9306-3.5207 3.9306-3.5207s-3.4555 0.37256-5.1135 0.37256c-1.6579 0-5.8958 0.1304-5.5047-0.65199 0.30737-0.61473 6.4081-1.5834 8.6994-2.5148 6.9018-2.7942 11.102-8.0381 11.102-8.0381z" fill="#ff7043"/>
    <path d="m62.32 48.865c-1.7045 3.9585 1.7045 5.7934 1.7045 5.7934s1.3319-2.8408 1.9001-4.1262c0.69856-1.5927 1.3785-3.5766 1.3785-3.5766s-3.6232-1.2574-4.9831 1.9094z" fill="#42a5f5"/>
    <path d="m60.616 60.945s-2.3565-0.2608-4.4615-0.9873c-1.9094-0.6613-5.1228-3.3531-7.0787 0.1304-1.8069 3.2134 1.2202 4.9831 3.6046 5.9704 2.2261 0.9221 4.2286 1.2481 4.2286 1.2481s1.5275-2.5614 1.9653-3.2786 1.7417-3.083 1.7417-3.083z" fill="#42a5f5"/>
   </g>
   <g fill="#bbdefb">
    <g stroke-width=".93141">
     <path d="m52.615 74.041s-3.1482-0.17697-5.1787-0.69856c-1.779-0.45639-5.0296-2.6266-6.8179 0.1956-1.5927 2.5148 0.71719 4.508 3.8002 5.3091 3.409 0.88484 5.3743 0.62405 5.3743 0.62405s0.81964-1.6672 1.1456-2.5893c0.34462-0.94073 1.6765-2.8408 1.6765-2.8408z"/>
     <path d="m47.743 86.01s-3.8002 0.52159-5.635 0.52159c-1.9001 0-6.7062-0.44708-6.6037 3.9771 0.08383 3.8002 5.2345 3.4835 6.5571 3.4555 1.8815-0.04657 6.79-0.93141 6.79-0.93141s-0.83827-1.4903-1.0804-3.5766c-0.18628-1.5275-0.02794-3.4462-0.02794-3.4462z"/>
     <path d="m51.562 95.762s-0.61473 2.7663-1.5089 4.7875c-0.9873 2.2261-3.2786 6.0356 1.3785 7.8052 4.3031 1.6393 6.0356-1.4437 6.8179-4.9179 0.7265-3.232 0.78239-5.8679 0.78239-5.8679s-2.2726-0.10246-4.1541-0.53091c-1.5089-0.36325-3.3158-1.276-3.3158-1.276z"/>
     <path d="m66.185 97.093s3.083 2.6918 4.061 4.061c0.9873 1.3785 3.232 5.5326 6.8179 3.735 3.1482-1.5741 0.60542-6.3802-0.9221-8.1312-1.276-1.4623-3.2134-3.055-5.0483-4.1075-1.2295-0.69856-2.2726-0.87553-2.2726-0.87553s0.21422 1.9187-0.35394 3.2786c-0.5961 1.4623-2.282 2.0398-2.282 2.0398z"/>
     <path d="m70.256 88.021c0.31668 1.0804 1.2574 1.127 3.3438 0.2608 2.2261-0.9221 5.2439-1.3785 7.74-1.3785 2.9526 0 5.8306 1.9653 6.8831 2.8222 1.0525 0.8569 2.3192 1.155 2.5148-0.48434s-0.9873-3.4742-3.2786-5.1135c-1.3971-0.99661-3.8933-2.5334-6.8366-2.5986-3.1389-0.0652-6.0356 1.0525-7.8704 2.2261-1.1363 0.73582-3.0271 2.4962-2.4962 4.2659z"/>
    </g>
    <circle cx="33.36" cy="19.889" r="7.9805" stroke="#42a5f5" stroke-width="1.4148"/>
    <circle cx="43.461" cy="29.705" r="7.9805" stroke="#42a5f5" stroke-width="1.4148"/>
   </g>
   <circle cx="30.417" cy="21.599" r="3.4308" fill="#263238"/>
   <circle cx="41.068" cy="32.088" r="3.4308" fill="#263238"/>
  </g>
 </g>
</svg>
